<svg height="300.01231250000006" version="1.1" width="370.1" xmlns="http://www.w3.org/2000/svg" style="overflow: hidden; position: relative; left: -0.450012px;" viewBox="0.36349107142857146 0.36349107142857146 370.1 300.01231250000006" preserveAspectRatio="xMinYMin"><rect x="-2015.01" y="-1633.23" width="5040" height="4085.55" r="0" rx="0" ry="0" fill="#ffffff" stroke="none" transform="matrix(0.3672,0,0,0.3672,0,0)" style="fill-opacity: 0;" stroke-width="2.723588219400162" fill-opacity="0"/><path style="opacity: 1; cursor: pointer; stroke-opacity: 1; stroke-linejoin: round; fill-opacity: 1;" fill="#afe0cb" stroke="#ffffff" d="M961.9,646.5L967.1999999999999,650.8L971.0999999999999,649.9L973.8,650.6999999999999L976.0999999999999,655.6999999999999L977.6999999999999,657.5999999999999L979.4,658.6999999999999L989.5,665.9999999999999L996.2,668.1999999999999L999,671.3L997.7,674L997.1,674.6L998.1,678.3000000000001L998.5,680.6L998.1,682.7L996.6,685.7L993.5,690.7L992.7,693.1L993.2,695.2L993.6,699.7L989.9,704.4000000000001L987.9,706.2L980.9,704.3000000000001L975.1999999999999,703.9000000000001L967.3,700.8000000000001L957.5999999999999,694.7L946.5999999999999,691.6L935.0999999999999,682.2L932.8999999999999,679.1L934.7999999999998,673.9L935.3999999999999,663.5L935.9999999999999,648.4L936.4999999999999,645.8L937.5999999999999,643.0999999999999L940.3999999999999,638.1999999999999L941.5999999999999,634.4999999999999L942.4999999999999,630.1999999999999L943.7999999999998,627.5999999999999L945.6999999999998,628.8999999999999L951.3999999999999,637.2999999999998L956.5999999999999,642.7999999999998L961.8999999999999,646.4999999999999ZM662.7,552.6L661.8000000000001,553.2L660.8000000000001,551.3000000000001L658.5000000000001,549.0000000000001L657.2000000000002,546.2000000000002L657.2000000000002,545.3000000000002L658.5000000000001,539.5000000000002L659.8000000000001,537.8000000000002L661.1,537.2000000000002L662.5,538.0000000000001L663.6,539.8000000000001L664,543.2L663.9,548.2L664.6,549.6L664.2,550.8000000000001L662.7,552.6ZM635.1,566.6L632,567.5L629,562.8L627,555.9L626.9,550.3L628.4,547.0999999999999L633.6,541.4999999999999L635.1,538.3999999999999L637.5,532.1999999999998L639.4,529.6999999999998L640.4,532.9999999999998L648.6,553.6999999999998L648.7,554.7999999999998L643.8000000000001,560.4999999999999L641.6,561.1999999999999L639,562.8L636.6,564.8L635.1,566.5999999999999ZM549.5,524.6L542.7,520.5L540.5,519.8L540,520.6999999999999L538.3,521.5999999999999L532.8,521.8999999999999L532.5999999999999,519.9999999999999L530.9999999999999,515.7999999999998L531.3999999999999,512.9999999999999L532.4999999999999,509.2999999999999L534.8999999999999,503.6999999999999L536.9999999999999,501.39999999999986L541.9999999999999,499.9999999999999L544.4999999999999,498.4999999999999L546.7999999999998,491.39999999999986L543.8999999999999,483.1999999999999L540.5999999999999,475.7999999999999L541.5999999999999,470.9999999999999L544.0999999999999,471.1999999999999L549.0999999999999,476.4999999999999L551.6999999999999,477.89999999999986L553.0999999999999,478.9999999999999L553.0999999999999,481.4999999999999L552.1999999999999,486.2999999999999L552.8,489.4999999999999L555.0999999999999,493.2999999999999L557.8,500.6999999999999L560.3,511.09999999999985L560.6999999999999,520.7999999999998L557.0999999999999,526.0999999999998L551.8999999999999,524.2999999999998L549.4999999999999,524.5999999999998ZM604.2,553.9L598.1,550.9L593.1,550.3L589,551L587.3,549.7L584.5,551.3000000000001L581.8,551.5000000000001L577.4,549.5000000000001L577.3,546.5000000000001L576.3,544.1000000000001L577,540.0000000000001L575.7,537.4000000000001L580.6,533.4000000000001L583.9,532.1000000000001L589.4,528.1000000000001L589.5,526.4000000000001L586.8,524.7L585.6999999999999,522.9000000000001L585.4,521.5000000000001L587.4,519.6000000000001L577.1,517.8000000000002L569.3000000000001,510.20000000000016L564.1,510.20000000000016L560.9,495.20000000000016L560.9,486.3000000000002L560.4,482.70000000000016L557.1,469.20000000000016L554.9,465.70000000000016L552.3,464.40000000000015L549.1999999999999,464.60000000000014L538.4,469.0000000000001L534.3,469.7000000000001L532,467.5000000000001L534.3,461.3000000000001L541.6999999999999,455.0000000000001L555.0999999999999,446.60000000000014L576.6999999999999,428.10000000000014L587.9999999999999,421.8000000000001L599.7999999999998,422.3000000000001L611.9999999999999,429.3000000000001L622.0999999999999,429.3000000000001L624.8,430.8000000000001L629.8,435.3000000000001L634,437.10000000000014L641.3,443.3000000000001L639.4,447.3000000000001L633.6,455.3000000000001L631.5,459.5000000000001L627.7,469.60000000000014L625.9000000000001,472.5000000000001L625.9000000000001,474.4000000000001L629.8000000000001,480.1000000000001L631.8000000000001,484.00000000000006L632.6,487.30000000000007L633.3000000000001,492.00000000000006L634.8000000000001,497.50000000000006L636.7,502.50000000000006L638.5,505.50000000000006L637.9,508.00000000000006L637.6,511.40000000000003L637.5,516.7L636.5,522.7L637.2,525.2L638.5,527.9000000000001L635.5,531.7L629.9,542.8000000000001L624.5,546.6L623.6,549.6L622.2,552.6L619.1,553.7L616.8000000000001,552.9000000000001L613.3000000000001,550.4000000000001L610.4000000000001,550.3000000000001L604.2,553.9000000000001Z" class="sm_state_DNK3419" opacity="1" stroke-opacity="1" stroke-width="1.8900000000000003" stroke-linejoin="round" transform="matrix(0.3672,0,0,0.3672,0,0)" fill-opacity="1"/><path style="opacity: 1; cursor: pointer; stroke-opacity: 1; stroke-linejoin: round; fill-opacity: 1;" fill="#0fc176" stroke="#ffffff" d="M116.6,209.5L116.19999999999999,211.4L117.89999999999999,216.1L117.89999999999999,218.9L116.19999999999999,227.3L114.99999999999999,230.60000000000002L113.29999999999998,232.60000000000002L113.19999999999999,229.50000000000003L112.49999999999999,227.60000000000002L110.39999999999999,225.60000000000002L106.99999999999999,228.3L106.39999999999999,229.3L105.99999999999999,232L106.39999999999999,233.7L107.49999999999999,236.2L108.59999999999998,244.79999999999998L109.89999999999998,247.39999999999998L112.29999999999998,248.49999999999997L111.39999999999998,249.79999999999998L109.49999999999997,250.49999999999997L110.39999999999998,252.19999999999996L108.49999999999997,255.09999999999997L106.39999999999998,260.9L104.49999999999997,264.4L102.59999999999997,266.79999999999995L96.79999999999997,271.59999999999997L95.99999999999997,275.99999999999994L84.79999999999997,279.19999999999993L80.79999999999997,281.29999999999995L79.39999999999996,280.59999999999997L75.59999999999997,272.09999999999997L74.09999999999997,269.99999999999994L70.59999999999997,266.29999999999995L67.19999999999996,264.59999999999997L66.29999999999995,264.4L61.899999999999956,266.09999999999997L60.49999999999996,265.9L60.99999999999996,262.79999999999995L61.59999999999996,261.49999999999994L63.99999999999996,259.59999999999997L65.29999999999995,259.29999999999995L65.89999999999995,258.09999999999997L65.69999999999995,255.59999999999997L64.79999999999994,252.19999999999996L68.69999999999995,249.19999999999996L78.69999999999995,247.79999999999995L82.29999999999994,243.19999999999996L78.69999999999995,243.19999999999996L75.49999999999994,241.59999999999997L76.29999999999994,239.19999999999996L79.19999999999995,235.29999999999995L79.89999999999995,232.79999999999995L79.39999999999995,226.39999999999995L79.89999999999995,225.49999999999994L83.19999999999995,225.59999999999994L87.19999999999995,223.99999999999994L95.49999999999994,222.59999999999994L99.69999999999995,220.29999999999993L102.79999999999994,221.39999999999992L105.59999999999994,217.5999999999999L110.39999999999993,207.6999999999999L113.59999999999994,209.7999999999999L115.69999999999993,206.8999999999999L117.29999999999993,203.4999999999999L119.09999999999992,204.19999999999987L116.59999999999992,209.4999999999999ZM438.79999999999995,113.2L439.79999999999995,116.4L439.69999999999993,119.10000000000001L438.69999999999993,121.4L435.49999999999994,120.7L432.19999999999993,119.5L421.3999999999999,122.1L423.5999999999999,124.1L425.2999999999999,128L424.7999999999999,132.2L421.3999999999999,136L419.49999999999994,139.2L418.29999999999995,142.7L415.99999999999994,145.5L411.59999999999997,146.6L408.79999999999995,144.29999999999998L405.09999999999997,137.2L400.09999999999997,136.29999999999998L396.2,134.2L393.7,131.7L391.4,129.1L391.4,127.5L396.2,126.4L400.8,121.9L404.40000000000003,118.60000000000001L410.1,118.30000000000001L413.40000000000003,117.30000000000001L415.90000000000003,114.4L426.40000000000003,114.5L432.1,111.4L436,111.30000000000001L437.6,111.9L438.8,113.2ZM297.9,277.4L293.2,282.7L286.59999999999997,288.2L281.9,295L272.2,301L263.7,302L260.3,303.1L254.70000000000002,306.40000000000003L250.00000000000003,312.00000000000006L244.10000000000002,312.90000000000003L241.70000000000002,312.40000000000003L237.9,310.3L231.70000000000002,311.90000000000003L224.70000000000002,303.90000000000003L220.10000000000002,306.50000000000006L217.40000000000003,305.6000000000001L218.40000000000003,299.9000000000001L222.10000000000002,295.7000000000001L219.3,293.0000000000001L203.20000000000002,292.8000000000001L199.3,288.40000000000015L200.20000000000002,282.20000000000016L198.10000000000002,279.90000000000015L194.00000000000003,279.50000000000017L192.90000000000003,282.1000000000002L194.10000000000002,285.7000000000002L190.70000000000002,291.5000000000002L185.4,288.60000000000025L175.20000000000002,283.60000000000025L172.3,276.90000000000026L170.20000000000002,274.7000000000003L167.4,275.10000000000025L161.70000000000002,277.7000000000003L160.3,279.8000000000003L157.3,281.7000000000003L154.3,281.90000000000026L153,278.60000000000025L154.6,275.5000000000002L161.1,271.5000000000002L162.6,267.2000000000002L163.4,263.6000000000002L163.1,261.8000000000002L159.6,260.50000000000017L156.9,257.50000000000017L155.20000000000002,254.00000000000017L154.4,251.40000000000018L153.9,248.30000000000018L154,245.1000000000002L154.7,244.30000000000018L158,239.1000000000002L159,236.6000000000002L158.9,233.6000000000002L158.20000000000002,230.6000000000002L157.3,229.30000000000018L155.70000000000002,228.90000000000018L154.4,228.00000000000017L152.1,225.60000000000016L154.79999999999998,219.10000000000016L157.39999999999998,214.00000000000017L160.29999999999998,209.80000000000018L164.7,205.2000000000002L168.7,203.30000000000018L169.5,199.7000000000002L170,198.80000000000018L190.9,191.80000000000018L195.6,191.90000000000018L212.1,198.80000000000018L212.1,200.80000000000018L210.29999999999998,202.00000000000017L210.2,203.60000000000016L211.29999999999998,205.10000000000016L213.2,206.10000000000016L215.1,205.90000000000018L216.5,204.60000000000016L221.6,196.30000000000015L224,191.60000000000016L226.5,187.90000000000018L232.1,185.90000000000018L236.79999999999998,182.90000000000018L243.49999999999997,184.7000000000002L258.59999999999997,182.90000000000018L250.29999999999995,175.00000000000017L245.99999999999994,173.40000000000018L243.19999999999993,171.00000000000017L241.59999999999994,170.40000000000018L240.49999999999994,171.10000000000016L235.49999999999994,177.90000000000018L232.79999999999995,180.7000000000002L229.79999999999995,182.2000000000002L227.09999999999997,180.1000000000002L224.59999999999997,177.5000000000002L221.89999999999998,178.2000000000002L216.99999999999997,182.90000000000018L211.29999999999998,185.30000000000018L198.99999999999997,185.50000000000017L166.59999999999997,197.20000000000016L163.79999999999995,197.50000000000017L161.09999999999997,196.30000000000018L145.29999999999995,182.90000000000018L146.19999999999996,186.30000000000018L145.09999999999997,188.1000000000002L140.39999999999998,190.0000000000002L136.99999999999997,192.6000000000002L135.19999999999996,193.5000000000002L132.79999999999995,193.5000000000002L133.59999999999997,191.9000000000002L131.09999999999997,190.3000000000002L128.69999999999996,190.8000000000002L126.19999999999996,192.8000000000002L123.89999999999996,195.5000000000002L121.59999999999997,195.2000000000002L118.69999999999996,198.1000000000002L116.29999999999995,201.2000000000002L115.19999999999996,201.7000000000002L113.99999999999996,198.2000000000002L111.19999999999996,196.80000000000018L107.99999999999996,197.2000000000002L105.59999999999995,198.80000000000018L107.59999999999995,201.1000000000002L102.49999999999996,205.9000000000002L95.49999999999996,209.70000000000022L90.39999999999996,208.20000000000022L87.09999999999997,208.9000000000002L83.79999999999997,210.4000000000002L82.29999999999997,212.3000000000002L81.49999999999997,217.3000000000002L79.59999999999997,220.4000000000002L77.39999999999996,222.70000000000022L75.49999999999996,225.60000000000022L74.29999999999995,235.8000000000002L68.29999999999995,245.10000000000022L65.09999999999995,245.40000000000023L63.49999999999995,246.20000000000024L61.79999999999995,248.70000000000024L59.49999999999995,249.60000000000025L57.19999999999995,251.40000000000026L56.09999999999995,254.80000000000027L57.299999999999955,263.5000000000003L57.19999999999995,267.6000000000003L55.09999999999995,270.0000000000003L55.09999999999995,271.6000000000003L60.69999999999995,271.0000000000003L61.99999999999995,271.6000000000003L63.09999999999995,274.70000000000033L62.19999999999995,276.9000000000003L60.399999999999956,278.20000000000033L58.59999999999996,278.6000000000003L56.899999999999956,278.1000000000003L53.59999999999996,275.70000000000033L51.79999999999996,275.1000000000003L50.09999999999996,275.6000000000003L47.19999999999996,277.9000000000003L45.39999999999996,278.6000000000003L45.39999999999996,280.5000000000003L52.19999999999996,278.6000000000003L54.19999999999996,279.3000000000003L57.19999999999996,281.6000000000003L58.59999999999996,282.1000000000003L68.49999999999996,277.8000000000003L70.59999999999995,278.6000000000003L70.99999999999996,280.5000000000003L70.59999999999995,287.6000000000003L72.69999999999995,291.0000000000003L73.69999999999995,293.5000000000003L71.59999999999995,297.2000000000003L70.19999999999995,299.0000000000003L68.29999999999994,299.90000000000026L66.29999999999994,300.2000000000003L64.99999999999994,301.0000000000003L65.09999999999994,302.1000000000003L63.999999999999936,303.3000000000003L59.999999999999936,299.6000000000003L56.59999999999994,294.9000000000003L55.09999999999994,291.9000000000003L53.79999999999994,288.1000000000003L50.59999999999994,285.0000000000003L46.59999999999994,282.90000000000026L42.999999999999936,282.10000000000025L40.499999999999936,280.80000000000024L37.499999999999936,277.5000000000002L34.69999999999994,273.5000000000002L32.89999999999994,270.0000000000002L31.29999999999994,260.7000000000002L30.39999999999994,259.30000000000024L28.499999999999943,258.60000000000025L24.499999999999943,255.90000000000026L22.199999999999942,255.70000000000027L24.199999999999942,265.3000000000003L24.89999999999994,270.8000000000003L24.59999999999994,274.3000000000003L22.49999999999994,274.7000000000003L21.399999999999938,269.3000000000003L21.099999999999937,257.3000000000003L22.799999999999937,246.7000000000003L25.899999999999938,238.7000000000003L51.29999999999994,197.1000000000003L58.89999999999994,189.1000000000003L70.59999999999994,170.40000000000032L75.09999999999994,166.1000000000003L80.19999999999993,166.2000000000003L91.89999999999993,170.4000000000003L98.59999999999994,170.8000000000003L111.39999999999993,167.9000000000003L116.99999999999993,164.9000000000003L123.79999999999993,157.4000000000003L126.39999999999992,156.2000000000003L161.69999999999993,161.4000000000003L174.59999999999994,159.8000000000003L187.39999999999995,155.00000000000028L199.49999999999994,146.8000000000003L210.19999999999993,134.8000000000003L240.59999999999994,78.10000000000029L245.99999999999994,70.0000000000003L255.69999999999993,59.0000000000003L260.5999999999999,49.6000000000003L262.4999999999999,48.2000000000003L265.89999999999986,43.3000000000003L272.6999999999999,41.900000000000304L285.7999999999999,42.8000000000003L298.4999999999999,40.7000000000003L310.0999999999999,35.5000000000003L320.0999999999999,28.0000000000003L337.2999999999999,10.1000000000003L346.7999999999999,2.9000000000002997L350.5999999999999,1.5000000000002998L354.7999999999999,1.0000000000002998L358.8999999999999,2.0000000000002998L362.2999999999999,4.800000000000299L354.5999999999999,7.7000000000002995L347.19999999999993,14.8000000000003L335.5999999999999,32.900000000000304L331.3999999999999,48.8000000000003L335.2999999999999,60.60000000000031L342.4999999999999,71.6000000000003L347.7999999999999,84.4000000000003L343.6999999999999,95.9000000000003L343.7999999999999,109.6000000000003L346.7999999999999,136.40000000000032L344.2999999999999,140.30000000000032L337.0999999999999,145.70000000000033L333.69999999999993,150.00000000000034L328.69999999999993,160.50000000000034L326.49999999999994,167.60000000000034L324.79999999999995,178.80000000000032L321.29999999999995,191.30000000000032L319.59999999999997,195.5000000000003L317.29999999999995,198.30000000000032L315.69999999999993,198.70000000000033L309.0999999999999,198.70000000000033L304.3999999999999,200.00000000000034L292.5999999999999,191.90000000000035L283.7999999999999,182.40000000000035L277.9999999999999,180.00000000000034L273.2999999999999,175.10000000000034L269.7999999999999,174.00000000000034L266.8999999999999,175.60000000000034L262.8999999999999,182.20000000000033L265.7999999999999,179.30000000000032L268.2999999999999,177.5000000000003L270.7999999999999,176.30000000000032L273.6999999999999,177.5000000000003L287.6999999999999,192.40000000000032L292.2999999999999,194.70000000000033L297.6999999999999,199.60000000000034L300.7999999999999,200.80000000000032L312.2999999999999,201.10000000000034L314.8999999999999,202.60000000000034L310.8999999999999,207.50000000000034L310.0999999999999,209.60000000000034L309.3999999999999,213.10000000000034L308.5999999999999,220.10000000000034L308.0999999999999,222.00000000000034L309.19999999999993,226.30000000000035L310.69999999999993,239.50000000000034L311.29999999999995,249.90000000000035L312.29999999999995,255.40000000000035L315.79999999999995,266.30000000000035L318.4,269.50000000000034L318.7,271.20000000000033L316.7,273.50000000000034L315.59999999999997,273.60000000000036L312.29999999999995,272.00000000000034L310.49999999999994,271.60000000000036L304.09999999999997,271.60000000000036L301.9,272.60000000000036L299.4,275.10000000000036L297,272.60000000000036L294.3,270.50000000000034L291.2,269.9000000000003L287.7,271.6000000000003L284.5,274.1000000000003L280.9,275.1000000000003L278.79999999999995,276.20000000000033L274.4,279.80000000000035L269.2,281.60000000000036L262.8,286.50000000000034L243.10000000000002,289.30000000000035L243.10000000000002,291.10000000000036L249.50000000000003,292.30000000000035L270.70000000000005,285.70000000000033L275.50000000000006,282.70000000000033L278.00000000000006,281.6000000000003L278.40000000000003,279.20000000000033L280.6,278.9000000000003L283.3,280.50000000000034L286.6,279.10000000000036L288,277.7000000000004L289.6,272.5000000000004L291.8,272.0000000000004L296.5,273.5000000000004L295.4,276.9000000000004L297.9,277.4000000000004Z" class="sm_state_DNK3418" opacity="1" stroke-opacity="1" stroke-width="1.8900000000000003" stroke-linejoin="round" transform="matrix(0.3672,0,0,0.3672,0,0)" fill-opacity="1"/><path style="opacity: 1; cursor: pointer; stroke-opacity: 1; stroke-linejoin: round; fill-opacity: 1;" fill="#51c795" stroke="#ffffff" d="M320,729.6L322,730.5L324.2,730.5L325.9,729.9L326.5,727.9L325.5,723.8L327.5,726.6999999999999L329.2,734.0999999999999L330.8,735.5999999999999L333.7,735.5999999999999L335.7,735.0999999999999L336.09999999999997,733.0999999999999L334.2,728.8999999999999L336.5,731.0999999999999L339.2,732.8L341.09999999999997,735.0999999999999L341.09999999999997,738.8999999999999L343.9,740.5999999999999L332.79999999999995,743.1999999999999L329.69999999999993,746.4999999999999L327.99999999999994,747.2999999999998L324.79999999999995,745.7999999999998L300.4,719.0999999999998L298.09999999999997,713.5999999999998L297.29999999999995,709.6999999999998L299.4,711.9999999999998L311.4,718.7999999999997L314.9,721.9999999999998L318.2,727.2999999999997L320,729.5999999999997ZM241.3,684.2L249.70000000000002,694.3000000000001L254.20000000000002,696.7L260.5,697.7L265,700.5L268.6,704.7L272.1,710.2L274.20000000000005,714.1L279.70000000000005,731.1L279.6,733.5L277.70000000000005,734L273.6,733.9L271.5,735L268.8,737.2L266,738.8000000000001L264,738.0000000000001L261.6,736.0000000000001L255.10000000000002,733.9000000000001L252.8,732.2L252.8,730.5L256.5,728.6L261,730.6L265.4,733.7L269.29999999999995,735.6L269.29999999999995,733.9L262.59999999999997,727.9L256.09999999999997,725.6L254.69999999999996,725.5L253.29999999999995,726L251.19999999999996,728L249.89999999999995,728.9L244.29999999999995,728.5L239.59999999999997,724.7L236.79999999999995,718.2L237.19999999999996,710.2L239.49999999999997,710.9000000000001L242.79999999999998,714.7L246.1,717.6L249,716.9L247.4,714.4L246.9,712.8L248.20000000000002,711.5L247.20000000000002,710.3L241.4,706.0999999999999L240.4,704.0999999999999L242.1,701.8L242.1,700.0999999999999L231,701.0999999999999L229.1,700.8999999999999L227.7,699.7999999999998L224.5,698.9999999999999L223.7,696.6999999999999L224.2,695.5999999999999L226.89999999999998,693.5999999999999L227.59999999999997,691.6999999999999L224.99999999999997,691.8L222.69999999999996,692.6999999999999L220.39999999999995,693.0999999999999L217.99999999999994,691.6999999999999L217.99999999999994,689.8L230.49999999999994,683.9L235.49999999999994,683.1L241.29999999999995,684.2ZM389,719.6L375.3,765.1L373.90000000000003,768.1L372.00000000000006,769.1L368.70000000000005,769.2L367.00000000000006,766.9000000000001L363.40000000000003,752.5000000000001L361.8,749.8000000000001L359.90000000000003,747.6L355.50000000000006,744L359.00000000000006,743.7L361.20000000000005,742.8000000000001L362.90000000000003,740.7L365.20000000000005,737.1L366.50000000000006,733L367.30000000000007,731.8L369.4000000000001,733.4L373.0000000000001,732.1999999999999L372.0000000000001,726.9999999999999L370.8000000000001,728.0999999999999L368.40000000000015,728.0999999999999L367.10000000000014,726.9999999999999L369.10000000000014,721.0999999999999L372.10000000000014,716.6999999999999L380.0000000000001,707.4999999999999L383.4000000000001,704.9999999999999L391.4000000000001,693.3999999999999L392.4000000000001,686.3999999999999L397.2000000000001,674.1999999999998L402.6000000000001,664.6999999999998L405.80000000000007,666.1999999999998L399.1000000000001,696.6999999999998L396.4000000000001,704.7999999999998L389.0000000000001,719.5999999999998ZM46,595.4L48.3,596.6999999999999L51.199999999999996,596.1999999999999L53.199999999999996,598.1999999999999L53.199999999999996,601.0999999999999L51.4,606.6999999999999L51.8,609.1999999999999L52.8,611.9L53.8,616.6L55.099999999999994,618.6L51.599999999999994,620L47.8,616.1L44.599999999999994,610L40.199999999999996,598.2L39.199999999999996,592.8000000000001L40.599999999999994,589.2L45.39999999999999,588L45.99999999999999,595.4ZM318.4,552.5L328.09999999999997,559.3L330.4,562.0999999999999L332.09999999999997,565.1999999999999L333.29999999999995,566.8L334.69999999999993,567.5L337.29999999999995,567.8L339.59999999999997,568.6999999999999L341.59999999999997,570.8L339.4,570.8L337.7,572.0999999999999L337.09999999999997,574.9999999999999L337.59999999999997,576.0999999999999L339.7,577.8L340,579.3L339.3,581.4L335.2,582.6999999999999L329.9,590.4L332.2,594.5L337.2,594.3L340,588.8L341.6,589.1999999999999L350.70000000000005,584.4L356.1,582.6999999999999L356.70000000000005,581.9L356.40000000000003,580.1999999999999L355.00000000000006,577.6999999999999L353.80000000000007,577.4L351.30000000000007,575.4L350.70000000000005,574.1999999999999L351.1,571.9999999999999L352.90000000000003,572.7999999999998L355.50000000000006,575.8999999999999L357.30000000000007,573.0999999999999L356.9000000000001,569.1999999999999L355.5000000000001,564.8L355.3000000000001,561.6999999999999L357.40000000000015,563.9L357.50000000000017,559.6999999999999L356.6000000000002,553.4999999999999L356.6000000000002,551.7999999999998L359.3000000000002,551.6999999999998L363.4000000000002,556.3999999999999L370.1000000000002,567.4999999999999L370.8000000000002,573.2999999999998L371.9000000000002,574.6999999999998L374.9000000000002,577.6999999999998L375.8000000000002,581.1999999999998L375.50000000000017,583.1999999999998L374.20000000000016,584.5999999999998L370.10000000000014,587.2999999999998L363.5000000000001,590.0999999999998L353.7000000000001,589.1999999999998L351.3000000000001,589.7999999999998L349.60000000000014,591.1999999999998L348.90000000000015,594.3999999999999L350.20000000000016,595.9999999999999L352.50000000000017,596.0999999999999L354.6000000000002,594.8L353.8000000000002,592.6999999999999L354.8000000000002,590.1999999999999L367.1000000000002,593.0999999999999L369.2000000000002,594.9999999999999L383.2000000000002,615.2999999999998L384.1000000000002,617.4999999999999L387.7000000000002,628.2999999999998L388.5000000000002,632.2999999999998L387.5000000000002,632.2999999999998L385.80000000000024,629.6999999999998L383.2000000000002,627.9999999999998L380.9000000000002,628.6999999999998L379.8000000000002,633.0999999999998L380.6000000000002,636.1999999999998L384.4000000000002,642.1999999999998L385.5000000000002,645.8999999999999L385.80000000000024,651.1999999999998L385.5000000000002,656.0999999999998L384.5000000000002,660.2999999999998L382.4000000000002,665.3999999999999L381.9000000000002,667.1999999999998L381.8000000000002,672.1999999999998L381.3000000000002,673.4999999999998L377.8000000000002,678.1999999999998L376.50000000000017,681.1999999999998L375.6000000000002,683.9999999999998L374.3000000000002,686.3999999999997L372.00000000000017,688.2999999999997L370.3000000000002,688.6999999999997L364.8000000000002,688.2999999999997L358.4000000000002,688.2999999999997L356.1000000000002,688.6999999999997L353.4000000000002,689.9999999999997L351.0000000000002,691.8999999999996L349.2000000000002,694.2999999999996L346.6000000000002,696.7999999999996L343.6000000000002,696.3999999999996L338.1000000000002,693.3999999999996L328.6000000000002,692.5999999999997L325.50000000000017,691.6999999999997L321.8000000000002,688.6999999999997L320.20000000000016,688.2999999999997L316.60000000000014,688.5999999999997L314.8000000000001,688.4999999999997L303.7000000000001,681.3999999999996L299.6000000000001,680.9999999999997L298.50000000000006,682.8999999999996L298.40000000000003,688.2999999999996L296.3,686.6999999999996L292.90000000000003,682.7999999999996L290.6,681.3999999999996L287.70000000000005,681.2999999999996L282.30000000000007,682.6999999999996L279.9000000000001,681.3999999999996L290.7000000000001,673.0999999999997L292.6000000000001,669.5999999999997L290.1000000000001,665.9999999999997L288.4000000000001,661.9999999999997L286.5000000000001,658.6999999999997L283.8000000000001,657.5999999999997L281.7000000000001,658.1999999999997L278.4000000000001,659.6999999999997L276.1000000000001,659.3999999999997L272.9000000000001,656.0999999999998L271.0000000000001,655.3999999999997L269.3000000000001,657.5999999999998L269.8000000000001,661.4999999999998L274.7000000000001,668.9999999999998L274.2000000000001,673.0999999999998L273.5000000000001,673.3999999999997L268.5000000000001,672.5999999999998L268.10000000000014,671.8999999999997L269.10000000000014,668.6999999999997L268.90000000000015,666.6999999999997L266.90000000000015,661.1999999999997L266.60000000000014,658.4999999999997L266.90000000000015,655.8999999999996L267.8000000000001,653.4999999999997L267.60000000000014,651.4999999999997L265.5000000000001,650.1999999999997L259.8000000000001,648.7999999999997L256.40000000000015,646.2999999999997L255.40000000000015,643.6999999999997L254.10000000000014,641.4999999999997L253.80000000000013,639.9999999999997L254.10000000000014,638.3999999999996L255.40000000000015,636.1999999999996L255.70000000000016,634.7999999999996L255.40000000000015,632.0999999999996L253.80000000000015,626.2999999999996L254.20000000000016,617.7999999999996L252.80000000000015,616.5999999999996L250.60000000000016,616.4999999999995L246.50000000000017,616.8999999999995L244.60000000000016,616.1999999999995L242.60000000000016,614.3999999999995L239.20000000000016,609.8999999999995L241.50000000000017,608.9999999999995L244.20000000000016,608.6999999999996L246.50000000000017,607.7999999999996L247.90000000000018,604.9999999999997L241.40000000000018,601.7999999999996L245.00000000000017,601.5999999999996L243.60000000000016,598.6999999999996L241.00000000000017,597.0999999999996L235.40000000000018,596.2999999999996L233.40000000000018,595.4999999999997L228.60000000000016,589.4999999999997L228.60000000000016,587.9999999999997L232.40000000000018,589.6999999999997L236.40000000000018,593.1999999999997L240.30000000000018,595.7999999999997L244.00000000000017,594.7999999999997L230.00000000000017,582.2999999999997L224.80000000000018,581.1999999999997L225.80000000000018,578.5999999999997L227.2000000000002,577.4999999999997L230.6000000000002,575.8999999999996L235.9000000000002,569.0999999999997L243.5000000000002,567.4999999999997L246.1000000000002,567.9999999999997L246.7000000000002,571.3999999999996L247.90000000000018,574.1999999999996L254.7000000000002,577.8999999999996L262.1000000000002,575.2999999999996L276.1000000000002,565.5999999999996L294.4000000000002,559.4999999999995L300.6000000000002,554.8999999999995L304.1000000000002,553.6999999999995L307.9000000000002,553.3999999999995L309.0000000000002,553.6999999999995L310.10000000000025,558.7999999999995L312.10000000000025,558.0999999999995L312.5000000000002,556.1999999999995L312.10000000000025,550.9999999999994L314.0000000000002,550.4999999999994L318.4000000000002,552.4999999999994ZM224.59999999999997,527.8L211.59999999999997,527.8L208.29999999999995,526.0999999999999L207.49999999999994,527.8L207.29999999999995,529.6999999999999L210.19999999999996,531.0999999999999L220.39999999999995,531.3L222.19999999999996,532.4L229.59999999999997,540L231.09999999999997,543L232.09999999999997,545.7L233.49999999999997,547.6L236.29999999999998,548.4L249.89999999999998,548.4L247.49999999999997,551.3L240.19999999999996,557.0999999999999L236.29999999999995,562.1999999999999L234.39999999999995,563.4999999999999L231.09999999999994,563.8999999999999L229.89999999999995,564.9999999999999L229.59999999999994,569.6999999999999L229.09999999999994,570.8L220.19999999999993,573L216.99999999999994,575.4L214.99999999999994,575.9L213.29999999999995,575.5L210.09999999999997,574.1L208.29999999999995,574.2L209.19999999999996,575.9000000000001L207.19999999999996,578.8000000000001L201.89999999999995,580.5000000000001L199.59999999999994,582.7000000000002L201.99999999999994,584.3000000000002L204.69999999999993,584.1000000000001L211.69999999999993,582.3000000000002L214.29999999999993,581.1000000000001L222.49999999999991,585.6000000000001L223.0999999999999,588.4000000000001L222.39999999999992,591.8000000000001L220.89999999999992,594.8000000000001L218.99999999999991,596.1L214.1999999999999,597.1L212.0999999999999,598.2L212.7999999999999,601L214.5999999999999,604.7L215.0999999999999,606.7L214.6999999999999,609.5L213.8999999999999,611.7L214.09999999999988,613.5L216.9999999999999,615.3L218.69999999999987,617L220.39999999999986,619.3L220.79999999999987,621.6999999999999L218.89999999999986,623.6999999999999L218.89999999999986,625.4999999999999L220.29999999999987,627.1999999999999L225.49999999999986,636.1999999999999L227.29999999999987,636.9999999999999L228.99999999999986,638.5999999999999L229.59999999999985,642.5999999999999L228.99999999999986,645.4999999999999L227.09999999999985,649.4999999999999L226.69999999999985,653.4999999999999L225.89999999999984,655.2999999999998L224.09999999999982,656.5999999999998L219.89999999999984,657.5999999999998L211.59999999999982,655.9999999999998L209.69999999999982,656.5999999999998L206.2999999999998,661.0999999999998L202.8999999999998,663.2999999999998L198.9999999999998,664.4999999999999L197.8999999999998,665.5999999999999L197.8999999999998,667.8L199.0999999999998,669.5999999999999L201.4999999999998,669.5999999999999L201.4999999999998,671.3L197.2999999999998,671.0999999999999L195.3999999999998,671.5999999999999L193.69999999999982,673.0999999999999L195.09999999999982,674.1999999999999L196.89999999999984,674.5999999999999L200.99999999999983,674.5999999999999L202.79999999999984,675.5999999999999L204.89999999999984,677.8L208.29999999999984,683.0999999999999L204.59999999999985,687.8999999999999L202.19999999999985,690.1999999999998L199.59999999999985,691.6999999999998L193.09999999999985,692.9999999999998L190.49999999999986,694.8999999999997L191.69999999999985,698.3999999999997L193.49999999999986,698.4999999999998L201.49999999999986,695.1999999999998L205.09999999999985,695.3999999999999L206.29999999999984,695.1999999999998L209.49999999999983,692.0999999999998L211.09999999999982,691.6999999999998L214.19999999999982,692.9999999999998L219.8999999999998,699.2999999999997L222.7999999999998,701.7999999999997L230.59999999999982,703.8999999999997L232.49999999999983,705.2999999999997L233.59999999999982,708.8999999999997L236.69999999999982,727.5999999999998L236.7999999999998,729.3999999999997L235.4999999999998,730.4999999999998L233.2999999999998,730.5999999999998L231.3999999999998,729.3999999999997L229.69999999999982,729.1999999999997L228.59999999999982,732.1999999999997L231.99999999999983,733.8999999999997L233.49999999999983,735.2999999999997L234.39999999999984,737.0999999999997L234.89999999999984,739.1999999999997L235.19999999999985,741.9999999999997L234.59999999999985,744.4999999999997L232.49999999999986,745.5999999999997L230.89999999999986,744.5999999999997L228.89999999999986,739.9999999999997L227.59999999999985,738.8999999999996L221.69999999999985,739.3999999999996L219.89999999999984,738.8999999999996L217.29999999999984,737.2999999999996L218.59999999999985,735.3999999999996L218.89999999999986,733.8999999999996L216.39999999999986,730.1999999999996L215.39999999999986,727.9999999999995L216.39999999999986,726.9999999999995L220.19999999999987,725.4999999999995L219.4999999999999,722.6999999999996L216.09999999999988,720.7999999999996L212.09999999999988,721.9999999999997L211.29999999999987,723.3999999999996L209.39999999999986,728.3999999999996L206.29999999999987,733.8999999999996L205.19999999999987,734.1999999999996L202.9999999999999,733.8999999999996L199.59999999999988,737.5999999999997L193.69999999999987,742.5999999999997L191.69999999999987,745.5999999999997L190.79999999999987,750.7999999999997L188.79999999999987,751.5999999999997L186.39999999999986,751.2999999999997L183.59999999999985,748.5999999999997L180.99999999999986,749.1999999999997L179.49999999999986,750.5999999999997L177.39999999999986,751.0999999999997L176.09999999999985,752.5999999999997L173.99999999999986,752.9999999999997L163.59999999999985,752.8999999999996L161.09999999999985,751.8999999999996L160.09999999999985,748.9999999999997L159.69999999999985,745.5999999999997L158.99999999999986,743.0999999999997L156.69999999999985,740.9999999999997L126.69999999999985,733.8999999999996L115.59999999999985,729.2999999999996L104.29999999999986,727.3999999999996L100.99999999999986,727.8999999999996L91.29999999999986,731.4999999999997L86.09999999999985,731.2999999999996L81.19999999999985,729.6999999999996L82.29999999999984,725.4999999999995L81.19999999999985,723.7999999999995L83.09999999999985,716.9999999999995L81.89999999999985,710.6999999999996L79.69999999999985,704.6999999999996L78.29999999999984,698.3999999999996L78.89999999999984,690.3999999999996L80.49999999999983,683.7999999999996L82.59999999999982,677.6999999999996L84.09999999999982,671.2999999999996L69.09999999999982,668.5999999999996L67.39999999999982,668.6999999999996L66.89999999999982,670.7999999999996L66.49999999999982,680.3999999999996L65.59999999999981,681.5999999999997L64.29999999999981,681.8999999999996L62.499999999999815,683.8999999999996L60.499999999999815,686.6999999999996L58.29999999999981,687.9999999999995L56.09999999999981,687.4999999999995L54.19999999999981,684.7999999999995L52.59999999999981,678.5999999999995L52.79999999999981,672.6999999999995L53.69999999999981,666.6999999999995L54.19999999999981,660.2999999999995L56.79999999999981,655.3999999999995L62.69999999999981,654.4999999999995L68.69999999999982,656.2999999999995L71.69999999999982,659.3999999999995L69.79999999999981,659.8999999999995L68.19999999999982,661.1999999999995L65.79999999999981,664.4999999999994L66.19999999999982,667.2999999999994L74.59999999999982,668.4999999999994L82.39999999999982,670.2999999999994L85.19999999999982,669.1999999999994L84.89999999999982,664.4999999999993L82.29999999999983,655.9999999999993L80.49999999999983,645.3999999999993L79.39999999999984,634.7999999999993L79.69999999999983,631.9999999999993L80.89999999999984,628.4999999999993L81.19999999999983,626.2999999999993L80.99999999999983,623.0999999999992L79.39999999999984,616.8999999999992L78.09999999999984,605.6999999999991L77.09999999999984,600.2999999999992L75.09999999999984,595.5999999999991L71.49999999999984,592.6999999999991L66.39999999999985,591.4999999999991L56.99999999999985,591.1999999999991L50.199999999999854,589.0999999999991L44.39999999999986,583.6999999999991L31.599999999999856,564.3999999999992L31.699999999999857,562.5999999999992L34.69999999999986,562.0999999999992L34.69999999999986,560.4999999999992L31.99999999999986,559.3999999999992L28.69999999999986,559.0999999999992L25.59999999999986,559.9999999999992L23.09999999999986,562.0999999999992L21.499999999999858,565.5999999999992L21.899999999999856,567.9999999999992L26.099999999999856,572.4999999999992L23.999999999999854,573.3999999999992L22.199999999999854,575.8999999999992L25.399999999999853,576.4999999999992L29.29999999999985,578.9999999999992L32.49999999999985,582.6999999999992L33.79999999999985,586.9999999999992L31.999999999999847,587.6999999999992L15.099999999999849,573.5999999999992L11.599999999999849,571.5999999999992L3.299999999999848,569.9999999999992L1.1999999999998479,567.7999999999992L0.9999999999998479,564.0999999999991L8.999999999999847,542.6999999999991L11.599999999999847,532.9999999999991L13.399999999999848,522.6999999999991L13.599999999999847,512.4999999999991L12.499999999999847,504.4999999999991L39.79999999999985,504.1999999999991L44.19999999999985,507.39999999999907L47.69999999999985,508.9999999999991L52.69999999999985,512.1999999999991L54.39999999999985,512.5999999999991L56.99999999999985,511.9999999999991L65.99999999999986,501.9999999999991L66.29999999999986,500.7999999999991L65.29999999999986,497.6999999999991L66.99999999999986,496.2999999999991L69.49999999999986,495.9999999999991L70.89999999999986,496.89999999999907L74.09999999999987,497.79999999999905L76.49999999999987,497.39999999999907L78.79999999999987,496.29999999999905L80.29999999999987,496.09999999999906L84.89999999999986,497.29999999999905L94.79999999999987,504.39999999999907L97.19999999999987,505.1999999999991L101.79999999999987,503.6999999999991L104.09999999999987,502.2999999999991L104.09999999999987,500.5999999999991L103.29999999999987,496.3999999999991L104.79999999999987,494.0999999999991L106.99999999999987,486.69999999999914L112.19999999999987,484.0999999999991L119.09999999999988,484.69999999999914L123.39999999999988,488.79999999999916L128.9999999999999,496.09999999999917L130.9999999999999,497.59999999999917L135.7999999999999,497.09999999999917L137.2999999999999,495.6999999999992L139.1999999999999,495.8999999999992L140.3999999999999,492.6999999999992L142.3999999999999,489.8999999999992L143.6999999999999,488.9999999999992L146.1999999999999,488.1999999999992L148.5999999999999,486.2999999999992L155.1999999999999,477.89999999999924L159.0999999999999,469.99999999999926L164.39999999999992,468.7999999999993L177.5999999999999,473.19999999999925L182.0999999999999,475.99999999999926L185.6999999999999,479.2999999999993L192.7999999999999,488.2999999999993L193.8999999999999,490.19999999999925L194.59999999999988,493.2999999999993L195.3999999999999,495.5999999999993L198.59999999999988,499.3999999999993L202.19999999999987,505.4999999999993L204.09999999999988,507.9999999999993L206.3999999999999,508.79999999999933L211.3999999999999,508.1999999999993L214.09999999999988,508.79999999999933L214.69999999999987,510.1999999999993L213.39999999999986,514.6999999999994L213.69999999999987,516.5999999999993L215.19999999999987,517.5999999999993L219.89999999999986,518.1999999999994L222.99999999999986,519.1999999999994L224.59999999999985,520.6999999999994L225.39999999999986,522.8999999999994L225.19999999999987,525.0999999999995L224.59999999999988,527.7999999999995Z" class="sm_state_DNK3417" opacity="1" stroke-opacity="1" stroke-width="1.8900000000000003" stroke-linejoin="round" transform="matrix(0.3672,0,0,0.3672,0,0)" fill-opacity="1"/><path style="opacity: 1; cursor: pointer; stroke-opacity: 1; stroke-linejoin: round; fill-opacity: 1;" fill="#cce5db" stroke="#ffffff" d="M315.8,518.6L314.8,519.4L305.2,517.8L304.2,516.8L304.8,515.5L312.2,514.1L313.8,508.20000000000005L314.8,507.80000000000007L316,510.4000000000001L316.6,514.3000000000001L315.8,518.6ZM358.40000000000003,484.8L360.8,488.2L362.5,487.2L363.7,484.5L365.2,484.7L363.2,488.4L359.4,493.29999999999995L358.7,497.9L358.8,506.29999999999995L357.40000000000003,510.69999999999993L352.90000000000003,514.9999999999999L347.90000000000003,513.5999999999999L344.1,507.7999999999999L342.90000000000003,498.4999999999999L343.70000000000005,493.39999999999986L345.20000000000005,491.29999999999984L347.20000000000005,490.1999999999998L349.6,488.1999999999998L351.6,484.99999999999983L352.70000000000005,481.09999999999985L352.6,476.79999999999984L350.70000000000005,472.49999999999983L348.1,470.6999999999998L345.20000000000005,469.3999999999998L343.40000000000003,466.6999999999998L343.90000000000003,460.3999999999998L345.3,457.0999999999998L347.5,454.8999999999998L349.3,455.49999999999983L350.3,466.09999999999985L352.6,470.49999999999983L355.8,473.29999999999984L359.40000000000003,474.39999999999986L358.1,476.89999999999986L357.6,479.59999999999985L357.70000000000005,482.1999999999999L358.40000000000003,484.7999999999999ZM494.1,280.5L491.70000000000005,281.5L488.80000000000007,281.2L486.1000000000001,279.59999999999997L484.4000000000001,276.9L484.0000000000001,273.09999999999997L485.60000000000014,271.7L497.70000000000016,270.4L503.8000000000002,268.09999999999997L503.8000000000002,269.99999999999994L501.8000000000002,271.59999999999997L499.3000000000002,272.79999999999995L497.4000000000002,275.4L495.7000000000002,278.29999999999995L494.1000000000002,280.49999999999994ZM175.20000000000005,283.6L185.40000000000003,288.6L190.70000000000005,291.5L194.10000000000005,285.7L192.90000000000006,282.09999999999997L194.00000000000006,279.49999999999994L198.10000000000005,279.8999999999999L200.20000000000005,282.19999999999993L199.30000000000004,288.3999999999999L203.20000000000005,292.7999999999999L219.30000000000004,292.9999999999999L222.10000000000005,295.6999999999999L218.40000000000006,299.89999999999986L217.40000000000006,305.59999999999985L220.10000000000005,306.49999999999983L224.70000000000005,303.8999999999998L231.70000000000005,311.8999999999998L237.90000000000003,310.2999999999998L241.70000000000005,312.3999999999998L244.10000000000005,312.8999999999998L250.00000000000006,311.99999999999983L254.70000000000005,306.3999999999998L260.30000000000007,303.0999999999998L263.70000000000005,301.9999999999998L272.20000000000005,300.9999999999998L281.90000000000003,294.9999999999998L286.6,288.19999999999976L293.20000000000005,282.69999999999976L297.90000000000003,277.39999999999975L304.70000000000005,278.69999999999976L310.6,278.2999999999998L314.40000000000003,275.9999999999998L317.8,274.69999999999976L320.40000000000003,280.39999999999975L321.1,288.89999999999975L318.70000000000005,296.19999999999976L309.1,303.59999999999974L302.1,311.59999999999974L300.8,312.09999999999974L299.8,320.4999999999997L299.40000000000003,322.7999999999997L300.40000000000003,325.6999999999997L299.8,329.3999999999997L298.2,332.79999999999967L296.5,334.8999999999997L300.8,334.6999999999997L302.40000000000003,333.2999999999997L302.3,323.59999999999974L302.7,316.59999999999974L304.09999999999997,313.19999999999976L310.09999999999997,308.59999999999974L314.7,302.2999999999997L317.2,300.59999999999974L320.2,302.4999999999997L320.7,304.09999999999974L321.59999999999997,311.2999999999997L322.2,312.09999999999974L326.4,315.59999999999974L337,321.69999999999976L348.5,323.09999999999974L382.1,317.7999999999997L386.8,318.2999999999997L391.40000000000003,320.89999999999975L393.50000000000006,323.2999999999997L398.1000000000001,331.39999999999975L406.9000000000001,340.2999999999997L406.9000000000001,341.89999999999975L403.6000000000001,345.09999999999974L401.80000000000007,350.9999999999997L401.1000000000001,357.7999999999997L401.00000000000006,363.89999999999975L399.40000000000003,369.4999999999998L386.40000000000003,388.19999999999976L379.8,392.69999999999976L377.40000000000003,396.19999999999976L376.6,399.59999999999974L377,407.4999999999997L375,415.1999999999997L370.5,416.1999999999997L365.6,412.4999999999997L362.3,406.59999999999974L365.90000000000003,405.9999999999997L367.40000000000003,404.59999999999974L368.20000000000005,401.39999999999975L367.80000000000007,397.9999999999998L366.30000000000007,396.9999999999998L364.50000000000006,396.69999999999976L362.80000000000007,395.39999999999975L359.4000000000001,394.09999999999974L355.9000000000001,398.2999999999997L352.7000000000001,403.89999999999975L348.2000000000001,409.19999999999976L349.2000000000001,415.09999999999974L351.0000000000001,421.59999999999974L351.7000000000001,425.89999999999975L350.3000000000001,427.69999999999976L348.0000000000001,428.7999999999998L345.60000000000014,428.9999999999998L343.90000000000015,428.39999999999975L342.40000000000015,426.2999999999997L341.00000000000017,421.39999999999975L340.00000000000017,418.89999999999975L341.1000000000002,417.69999999999976L343.50000000000017,415.9999999999998L344.8000000000002,415.4999999999998L343.8000000000002,412.5999999999998L342.6000000000002,411.2999999999998L336.7000000000002,409.4999999999998L335.4000000000002,409.7999999999998L332.3000000000002,411.7999999999998L328.3000000000002,412.5999999999998L325.9000000000002,410.5999999999998L323.7000000000002,407.0999999999998L320.7000000000002,403.1999999999998L323.80000000000024,402.79999999999984L328.60000000000025,398.99999999999983L331.2000000000003,397.99999999999983L333.2000000000003,399.49999999999983L335.7000000000003,402.09999999999985L338.10000000000025,403.09999999999985L340.0000000000002,399.49999999999983L337.60000000000025,395.49999999999983L337.80000000000024,392.29999999999984L341.90000000000026,383.89999999999986L340.0000000000003,383.89999999999986L338.0000000000003,383.09999999999985L336.1000000000003,381.59999999999985L334.70000000000033,379.59999999999985L333.1000000000003,378.59999999999985L329.5000000000003,380.29999999999984L327.5000000000003,378.6999999999998L327.0000000000003,382.0999999999998L326.2000000000003,384.1999999999998L325.0000000000003,385.29999999999984L323.0000000000003,385.59999999999985L322.0000000000003,386.99999999999983L318.2000000000003,395.3999999999998L314.7000000000003,399.7999999999998L307.10000000000025,406.19999999999976L303.7000000000003,410.9999999999998L301.7000000000003,416.89999999999975L302.60000000000025,420.59999999999974L305.0000000000002,424.09999999999974L307.2000000000002,429.2999999999997L308.1000000000002,435.6999999999997L307.50000000000017,440.5999999999997L305.8000000000002,445.0999999999997L303.20000000000016,450.0999999999997L306.60000000000014,448.3999999999997L309.10000000000014,448.0999999999997L309.8000000000001,449.8999999999997L306.2000000000001,457.8999999999997L305.9000000000001,461.0999999999997L306.1000000000001,467.49999999999966L306.00000000000006,471.89999999999964L305.20000000000005,475.99999999999966L301.80000000000007,480.49999999999966L301.30000000000007,482.19999999999965L299.1000000000001,483.19999999999965L297.4000000000001,484.79999999999967L296.5000000000001,486.29999999999967L297.2000000000001,486.8999999999997L298.2000000000001,489.3999999999997L298.7000000000001,492.0999999999997L296.3000000000001,496.3999999999997L295.0000000000001,496.8999999999997L293.2000000000001,496.4999999999997L291.9000000000001,495.2999999999997L289.7000000000001,491.7999999999997L288.0000000000001,486.39999999999975L286.7000000000001,484.7999999999997L284.9000000000001,484.09999999999974L271.2000000000001,484.7999999999997L269.4000000000001,485.39999999999975L266.4000000000001,489.89999999999975L262.7000000000001,491.39999999999975L255.2000000000001,490.89999999999975L251.8000000000001,491.7999999999997L255.3000000000001,495.6999999999997L275.6000000000001,500.1999999999997L277.00000000000006,501.3999999999997L276.50000000000006,503.9999999999997L274.20000000000005,509.09999999999974L273.00000000000006,513.4999999999998L273.30000000000007,515.4999999999998L275.30000000000007,515.8999999999997L279.00000000000006,515.7999999999997L279.00000000000006,517.5999999999997L273.20000000000005,520.8999999999996L271.50000000000006,523.6999999999996L273.1000000000001,527.8999999999996L271.30000000000007,529.6999999999996L267.9000000000001,527.5999999999996L252.4000000000001,532.1999999999996L245.3000000000001,535.9999999999995L241.2000000000001,536.3999999999995L232.5000000000001,532.9999999999995L227.5000000000001,528.5999999999996L226.2000000000001,527.8999999999995L224.6000000000001,527.7999999999995L225.2000000000001,525.0999999999995L225.4000000000001,522.8999999999994L224.60000000000008,520.6999999999994L223.00000000000009,519.1999999999994L219.9000000000001,518.1999999999994L215.2000000000001,517.5999999999993L213.7000000000001,516.5999999999993L213.4000000000001,514.6999999999994L214.7000000000001,510.19999999999936L214.1000000000001,508.7999999999994L211.40000000000012,508.19999999999936L206.40000000000012,508.7999999999994L204.1000000000001,507.9999999999994L202.2000000000001,505.4999999999994L198.6000000000001,499.39999999999935L195.40000000000012,495.59999999999934L194.6000000000001,493.29999999999933L193.90000000000012,490.1999999999993L192.80000000000013,488.29999999999933L185.70000000000013,479.29999999999933L182.10000000000014,475.9999999999993L177.60000000000014,473.1999999999993L164.40000000000015,468.79999999999933L159.10000000000014,469.9999999999993L155.20000000000013,477.8999999999993L148.60000000000014,486.2999999999993L146.20000000000013,488.19999999999925L143.70000000000013,488.99999999999926L142.40000000000012,489.89999999999924L140.40000000000012,492.69999999999925L139.20000000000013,495.89999999999924L137.30000000000013,495.69999999999925L135.80000000000013,497.0999999999992L131.0000000000001,497.5999999999992L129.0000000000001,496.0999999999992L123.40000000000012,488.7999999999992L119.10000000000012,484.6999999999992L112.20000000000012,484.09999999999917L107.00000000000011,486.6999999999992L104.80000000000011,494.09999999999917L103.30000000000011,496.3999999999992L104.10000000000011,500.59999999999917L104.10000000000011,502.29999999999916L101.80000000000011,503.69999999999914L97.20000000000012,505.19999999999914L94.80000000000011,504.3999999999991L84.9000000000001,497.2999999999991L80.30000000000011,496.0999999999991L78.80000000000011,496.2999999999991L76.50000000000011,497.3999999999991L74.10000000000011,497.7999999999991L70.9000000000001,496.8999999999991L69.5000000000001,495.99999999999915L67.0000000000001,496.29999999999916L65.3000000000001,497.69999999999914L66.3000000000001,500.79999999999916L66.0000000000001,501.99999999999915L57.0000000000001,511.99999999999915L54.4000000000001,512.5999999999991L52.700000000000095,512.1999999999991L47.700000000000095,508.99999999999915L44.200000000000095,507.3999999999991L39.8000000000001,504.19999999999914L12.500000000000096,504.49999999999915L6.900000000000096,462.99999999999915L5.800000000000097,459.8999999999991L5.800000000000097,457.49999999999915L7.000000000000097,457.29999999999916L9.000000000000096,460.19999999999914L12.500000000000096,479.5999999999991L15.100000000000096,486.2999999999991L15.400000000000096,489.0999999999991L15.100000000000096,491.4999999999991L13.700000000000095,494.89999999999907L13.400000000000095,497.6999999999991L13.900000000000095,501.1999999999991L15.100000000000094,501.89999999999907L21.400000000000095,498.29999999999905L28.200000000000095,492.89999999999907L31.400000000000095,491.79999999999905L36.90000000000009,487.39999999999907L42.50000000000009,481.4999999999991L43.30000000000009,477.39999999999907L42.40000000000009,472.9999999999991L40.40000000000009,468.6999999999991L38.20000000000009,464.89999999999907L32.90000000000009,457.89999999999907L32.90000000000009,450.09999999999906L31.30000000000009,440.99999999999903L27.60000000000009,435.199999999999L22.700000000000088,431.699999999999L11.800000000000088,426.699999999999L8.900000000000087,426.29999999999905L7.600000000000088,428.39999999999907L7.700000000000087,439.1999999999991L7.500000000000087,444.39999999999907L6.600000000000087,450.09999999999906L7.100000000000087,454.29999999999905L6.800000000000087,455.89999999999907L4.700000000000086,455.29999999999905L4.100000000000087,453.89999999999907L3.0000000000000866,448.29999999999905L2.300000000000087,429.89999999999907L2.800000000000087,424.09999999999906L6.200000000000086,408.29999999999905L6.600000000000087,402.29999999999905L5.000000000000087,313.79999999999905L5.600000000000087,309.49999999999903L6.600000000000087,305.09999999999906L13.000000000000087,282.89999999999907L15.800000000000086,275.9999999999991L18.000000000000085,272.6999999999991L18.800000000000086,273.2999999999991L19.400000000000087,275.5999999999991L20.700000000000088,276.8999999999991L20.600000000000087,278.69999999999914L17.400000000000087,286.99999999999915L16.300000000000086,289.29999999999916L16.300000000000086,291.09999999999917L18.100000000000087,292.3999999999992L20.700000000000088,292.6999999999992L21.200000000000088,293.7999999999992L22.50000000000009,298.7999999999992L23.60000000000009,299.89999999999924L29.40000000000009,300.89999999999924L31.000000000000092,301.99999999999926L28.90000000000009,303.19999999999925L29.40000000000009,305.5999999999992L29.10000000000009,309.69999999999925L29.90000000000009,312.0999999999992L31.20000000000009,313.19999999999925L32.30000000000009,312.49999999999926L32.70000000000009,310.7999999999993L31.80000000000009,308.5999999999993L31.80000000000009,306.8999999999993L36.30000000000009,305.3999999999993L43.20000000000009,305.1999999999993L49.40000000000009,306.4999999999993L52.20000000000009,309.4999999999993L53.500000000000085,309.8999999999993L60.500000000000085,315.5999999999993L62.400000000000084,314.6999999999993L64.30000000000008,312.4999999999993L65.80000000000008,309.6999999999993L66.80000000000008,306.8999999999993L67.70000000000009,306.8999999999993L72.00000000000009,318.8999999999993L72.10000000000008,320.8999999999993L71.60000000000008,321.9999999999993L71.80000000000008,324.3999999999993L72.70000000000009,326.7999999999993L75.00000000000009,328.69999999999925L77.80000000000008,332.2999999999993L79.40000000000008,333.2999999999993L81.80000000000008,333.2999999999993L90.50000000000009,331.3999999999993L92.10000000000008,329.5999999999993L92.60000000000008,327.6999999999993L93.10000000000008,318.9999999999993L93.90000000000008,313.6999999999993L95.50000000000007,310.79999999999933L94.80000000000007,308.59999999999934L90.50000000000007,305.09999999999934L88.00000000000007,304.39999999999935L87.30000000000007,303.09999999999934L87.10000000000007,300.79999999999933L86.50000000000007,298.4999999999993L84.10000000000007,297.29999999999933L84.10000000000007,294.59999999999934L86.00000000000007,292.89999999999935L92.50000000000007,292.39999999999935L101.60000000000007,276.89999999999935L103.70000000000006,275.59999999999934L109.50000000000006,273.79999999999933L117.30000000000005,273.39999999999935L117.60000000000005,272.89999999999935L114.20000000000005,271.59999999999934L108.10000000000005,271.39999999999935L106.60000000000005,269.89999999999935L107.90000000000005,265.29999999999933L110.00000000000004,261.29999999999933L111.70000000000005,259.09999999999934L116.20000000000005,255.69999999999933L122.90000000000005,249.09999999999934L125.50000000000004,248.49999999999935L127.00000000000004,248.79999999999936L129.60000000000005,250.09999999999937L131.20000000000005,250.49999999999937L132.90000000000003,249.99999999999937L134.40000000000003,247.69999999999936L135.60000000000002,246.79999999999936L138.10000000000002,246.69999999999936L141.3,247.69999999999936L144.10000000000002,249.89999999999935L145.3,252.99999999999935L146.20000000000002,258.9999999999993L148.10000000000002,262.59999999999934L150.40000000000003,265.19999999999936L152.10000000000002,268.09999999999934L154.00000000000003,273.4999999999993L150.10000000000002,274.4999999999993L145.90000000000003,281.1999999999993L142.30000000000004,282.0999999999993L142.30000000000004,284.0999999999993L142.90000000000003,286.3999999999993L141.40000000000003,288.6999999999993L137.50000000000003,292.6999999999993L136.20000000000002,296.29999999999933L136.00000000000003,299.59999999999934L136.60000000000002,307.79999999999933L137.70000000000002,310.1999999999993L140.00000000000003,309.79999999999933L142.30000000000004,307.09999999999934L144.20000000000005,298.69999999999936L146.30000000000004,298.09999999999934L148.90000000000003,298.59999999999934L151.10000000000002,298.09999999999934L150.20000000000002,295.69999999999936L149.10000000000002,294.69999999999936L147.70000000000002,295.09999999999934L147.3,293.39999999999935L149.4,289.19999999999936L150.1,285.69999999999936L151.1,285.69999999999936L150.2,291.39999999999935L153.89999999999998,292.29999999999933L158.99999999999997,291.39999999999935L162.19999999999996,291.89999999999935L164.09999999999997,293.19999999999936L166.19999999999996,292.7999999999994L168.19999999999996,292.9999999999994L169.49999999999997,296.19999999999936L169.09999999999997,298.69999999999936L165.79999999999995,303.4999999999994L164.49999999999994,306.89999999999935L166.09999999999994,307.4999999999994L166.49999999999994,310.19999999999936L167.39999999999995,312.09999999999934L168.79999999999995,313.59999999999934L172.29999999999995,315.59999999999934L173.89999999999995,319.19999999999936L175.19999999999996,319.2999999999994L177.29999999999995,314.9999999999994L178.09999999999997,313.69999999999936L180.09999999999997,315.59999999999934L181.89999999999998,313.59999999999934L181.79999999999998,310.29999999999933L178.7,308.59999999999934L174.29999999999998,311.29999999999933L173.39999999999998,312.29999999999933L170.7,311.39999999999935L170.6,309.9999999999994L171.4,308.5999999999994L171.6,299.0999999999994L174,290.8999999999994L175.2,283.5999999999994Z" class="sm_state_DNK3416" opacity="1" stroke-opacity="1" stroke-width="1.8900000000000003" stroke-linejoin="round" transform="matrix(0.3672,0,0,0.3672,0,0)" fill-opacity="1"/><path style="opacity: 1; cursor: pointer; stroke-opacity: 1; stroke-linejoin: round; fill-opacity: 1;" fill="#79d0ab" stroke="#ffffff" d="M448.1,715.4L454.90000000000003,720.8L457.3,722L459.90000000000003,724.1L464.1,733.5L467.5,735.6L470.9,736.3000000000001L496,750.6L494.7,746.4L493.09999999999997,743.6999999999999L492.9,741.5999999999999L496,738.8999999999999L499.9,738.8999999999999L503.29999999999995,737.2999999999998L504.69999999999993,737.0999999999998L503.49999999999994,734.3999999999997L503.09999999999997,731.3999999999997L503.79999999999995,725.4999999999998L514.5999999999999,735.3999999999997L515.3999999999999,738.8999999999997L518.7999999999998,743.2999999999997L520.8999999999999,744.9999999999998L523.2999999999998,745.5999999999998L521.1999999999998,747.2999999999998L523.2999999999998,751.6999999999998L530.3999999999999,757.5999999999998L531.9999999999999,759.9999999999998L532.2999999999998,763.9999999999998L532.8999999999999,767.1999999999998L531.4999999999999,770.0999999999998L529.8999999999999,771.8999999999997L527.1999999999998,773.2999999999997L526.0999999999998,775.8999999999997L531.5999999999998,778.3999999999997L531.0999999999998,783.6999999999997L526.5999999999998,788.8999999999997L520.2999999999998,790.9999999999998L498.29999999999984,786.0999999999998L491.09999999999985,787.7999999999998L484.39999999999986,790.9999999999999L478.9999999999999,795.9999999999999L475.7999999999999,795.3999999999999L462.6999999999999,787.4999999999999L453.9999999999999,779.9999999999999L438.4999999999999,769.9999999999999L431.4999999999999,768.3999999999999L423.89999999999986,764.8999999999999L416.29999999999984,762.9999999999999L413.29999999999984,760.2999999999998L411.79999999999984,756.5999999999998L412.79999999999984,752.4999999999998L416.29999999999984,750.3999999999997L420.59999999999985,751.0999999999998L424.59999999999985,750.7999999999998L427.1999999999999,745.5999999999998L424.89999999999986,744.7999999999998L422.9999999999999,743.2999999999998L415.4999999999999,733.8999999999999L414.5999999999999,732.1999999999998L414.5999999999999,727.9999999999998L416.4999999999999,724.0999999999998L422.39999999999986,716.8999999999997L424.39999999999986,717.8999999999997L444.6999999999999,713.6999999999997L448.09999999999985,715.3999999999997ZM490.8,712.9L488.2,717.1L487.4,716.6L482.4,709.2L485.29999999999995,707.9000000000001L489.49999999999994,707.9000000000001L491.19999999999993,709.2L491.69999999999993,710.8000000000001L490.79999999999995,712.9000000000001ZM629.4,703.6L631.6999999999999,712L631.4,714.7L630.1,716.2L627.8000000000001,716.8000000000001L624.5000000000001,716.9000000000001L607.7000000000002,713.3000000000001L602.6000000000001,714.0000000000001L597.8000000000002,716.3000000000001L593.0000000000002,720.3000000000001L585.4000000000002,730.6L582.7000000000002,732.2L578.6000000000001,731.5L569.6000000000001,727L569.6000000000001,725.5L571.6000000000001,725.5L571.0000000000001,723L571.6000000000001,721L572.9000000000001,719.6L574.4000000000001,718.8000000000001L571.6000000000001,715.4000000000001L574.8000000000002,711.8000000000001L576.6000000000001,710.9000000000001L578.4000000000001,712.0000000000001L579.4000000000001,710.2000000000002L578.4000000000001,706.8000000000002L580.7,707.0000000000002L584.1,709.4000000000002L586.2,710.2000000000002L587.6,709.9000000000002L592.2,708.0000000000002L593.9000000000001,706.8000000000002L593.2,704.4000000000002L593.1,702.4000000000002L593.8000000000001,700.9000000000002L595.0000000000001,700.1000000000003L595.0000000000001,698.4000000000002L590.3000000000001,695.1000000000003L589.1,693.4000000000002L588.4,690.9000000000002L588.8,689.2000000000002L590.4,688.3000000000002L593,688.3000000000002L596,693.8000000000002L600.8,696.0000000000002L612.3,696.7000000000003L624.6999999999999,699.3000000000003L629.4,703.6000000000003ZM532.8,521.9000000000001L538.3,521.6000000000001L540,520.7000000000002L540.5,519.8000000000002L542.7,520.5000000000002L549.5,524.6000000000003L548.5,528.8000000000003L547.4,531.7000000000003L542.5,536.5000000000002L540.7,540.0000000000002L543.5,540.6000000000003L547.6,538.8000000000003L550.8000000000001,535.3000000000003L551.3000000000001,531.3000000000003L553.5000000000001,530.3000000000003L555.8000000000001,531.1000000000003L557.9000000000001,533.2000000000003L559.1000000000001,536.4000000000003L554.7000000000002,534.9000000000003L554.1000000000001,535.5000000000003L555.0000000000001,537.8000000000003L557.1000000000001,539.5000000000003L561.9000000000001,541.5000000000003L563.1000000000001,536.3000000000003L566.4000000000001,528.3000000000003L566.8000000000001,522.7000000000003L564.1,510.2000000000003L569.3000000000001,510.2000000000003L577.1,517.8000000000003L587.4,519.6000000000003L585.4,521.5000000000002L585.6999999999999,522.9000000000002L586.8,524.7000000000002L589.5,526.4000000000002L589.4,528.1000000000003L583.9,532.1000000000003L580.6,533.4000000000002L575.7,537.4000000000002L577,540.0000000000002L576.3,544.1000000000003L577.3,546.5000000000002L577.4,549.5000000000002L581.8,551.5000000000002L584.5,551.3000000000002L587.3,549.7000000000002L589,551.0000000000001L593.1,550.3000000000001L598.1,550.9000000000001L604.2,553.9000000000001L600.2,556.2L588.5,568.6L581.4,583.2L585.1999999999999,596.3000000000001L591.9999999999999,602.5000000000001L594.3999999999999,603.3000000000001L603.0999999999999,603.9000000000001L605.4999999999999,605.0000000000001L611.5999999999999,610.2000000000002L614.8,614.1000000000001L616.1999999999999,617.8000000000002L616.4999999999999,622.0000000000002L617.0999999999999,625.6000000000003L619.0999999999999,632.3000000000003L616.1999999999999,635.7000000000003L608.9,641.0000000000002L579.1999999999999,648.0000000000002L576.9999999999999,650.4000000000002L573.2999999999998,652.7000000000002L570.4999999999999,656.9000000000002L568.7999999999998,662.0000000000002L569.5999999999998,666.2000000000003L568.4999999999998,668.3000000000003L567.3999999999997,669.2000000000003L566.0999999999998,669.0000000000002L564.7999999999998,667.9000000000002L565.7999999999998,662.6000000000003L564.1999999999998,659.2000000000003L561.2999999999998,658.3000000000003L555.3999999999999,662.8000000000003L555.0999999999999,665.3000000000003L555.8999999999999,666.4000000000003L559.9999999999999,669.6000000000004L571.7999999999998,670.6000000000004L577.1999999999998,672.4000000000003L578.3999999999999,678.2000000000003L577.5999999999999,680.6000000000003L576.6999999999999,681.6000000000003L571.4999999999999,684.7000000000003L570.0999999999999,686.0000000000002L571.0999999999999,686.6000000000003L576.4999999999999,698.4000000000002L576.2999999999998,703.1000000000003L574.3999999999999,705.6000000000003L571.4999999999999,706.6000000000003L568.1999999999999,706.8000000000003L565.9999999999999,707.7000000000003L561.2999999999998,711.4000000000003L557.9999999999999,712.0000000000003L553.0999999999999,710.0000000000003L545.3999999999999,702.7000000000004L540.6999999999998,701.8000000000004L540.7999999999998,703.9000000000004L538.7999999999998,705.3000000000004L539.3999999999999,710.0000000000005L538.3999999999999,712.8000000000004L537.0999999999999,715.2000000000004L536.8,718.8000000000004L537.8,721.5000000000005L539.6999999999999,723.1000000000005L541.8,723.4000000000004L543.5999999999999,722.0000000000005L542.5999999999999,718.8000000000004L543.8,718.6000000000004L547.4,716.9000000000003L548.5,718.3000000000003L550.8,723.8000000000003L552.0999999999999,724.8000000000003L556.6999999999999,729.3000000000003L559.0999999999999,730.5000000000003L561.6999999999999,730.2000000000004L564.4,729.3000000000004L567,729.3000000000004L569.2,731.4000000000004L573.1,737.4000000000004L577.4,742.4000000000004L577.4,744.0000000000005L564.9,754.2000000000005L562.9,756.6000000000005L557.3,767.2000000000005L556.5999999999999,769.2000000000005L555.1999999999999,770.3000000000005L551.4,774.9000000000005L549.9,775.9000000000005L547.8,779.3000000000005L547.6999999999999,787.1000000000005L549.3,801.0000000000005L549,809.7000000000005L546.2,810.0000000000005L543.2,806.2000000000005L542.6,802.8000000000005L540.5,800.0000000000006L535.9,790.9000000000005L534.9,787.8000000000005L535.1,782.7000000000005L536.8000000000001,778.8000000000005L540.7,772.6000000000005L537.8000000000001,772.0000000000005L535.8000000000001,770.6000000000005L535.3000000000001,768.1000000000005L536.8000000000001,764.1000000000005L535.2,763.1000000000005L532.9000000000001,759.0000000000005L526.4000000000001,752.2000000000005L525.2,749.0000000000005L524.9000000000001,747.0000000000005L525.0000000000001,744.4000000000004L524.1000000000001,742.4000000000004L521.7000000000002,739.6000000000005L519.5000000000001,737.8000000000005L518.0000000000001,735.4000000000005L517.4000000000001,730.5000000000006L517.3000000000001,726.0000000000006L516.9000000000001,722.5000000000006L515.4000000000001,720.1000000000006L512.5000000000001,718.8000000000006L512.5000000000001,716.9000000000007L518.0000000000001,712.6000000000007L519.3000000000001,712.0000000000007L521.3000000000001,712.8000000000006L524.1,716.2000000000006L525.6,716.9000000000007L527.2,716.0000000000007L530.4000000000001,712.5000000000007L531.9000000000001,714.2000000000007L533.9000000000001,713.1000000000007L536.8000000000001,710.2000000000007L536.8000000000001,708.7000000000007L535.3000000000001,706.7000000000007L532.6,699.2000000000007L531,696.7000000000007L521.5,692.2000000000007L518.8,691.7000000000007L516.1999999999999,688.8000000000008L514.9999999999999,688.3000000000008L506.0999999999999,687.8000000000008L503.3999999999999,686.3000000000008L501.0999999999999,684.1000000000007L498.9999999999999,681.4000000000007L506.5999999999999,683.0000000000007L521.5999999999999,690.0000000000007L528.9999999999999,691.7000000000007L525.7999999999998,685.9000000000008L517.0999999999998,679.3000000000008L513.3999999999997,673.1000000000007L525.5999999999998,670.9000000000007L526.3999999999997,669.9000000000007L526.0999999999998,667.9000000000007L522.9999999999998,665.3000000000006L514.9999999999998,665.9000000000007L512.4999999999998,662.7000000000006L514.5999999999998,660.4000000000007L515.7999999999998,657.5000000000007L515.5999999999998,654.7000000000007L513.3999999999997,652.7000000000007L510.19999999999976,652.7000000000007L507.89999999999975,654.9000000000008L505.7999999999997,657.6000000000008L503.7999999999997,659.4000000000008L501.89999999999975,659.3000000000008L496.69999999999976,656.9000000000008L486.09999999999974,654.2000000000007L483.4999999999997,652.7000000000007L481.59999999999974,653.7000000000007L471.7999999999997,649.3000000000008L469.9999999999997,649.7000000000007L466.09999999999974,652.0000000000007L464.09999999999974,652.7000000000007L454.39999999999975,652.7000000000007L454.39999999999975,654.4000000000008L457.2999999999997,656.0000000000008L452.39999999999975,655.9000000000008L448.89999999999975,654.6000000000008L446.59999999999974,651.1000000000008L445.69999999999976,644.2000000000008L447.69999999999976,645.7000000000008L449.7999999999998,645.8000000000009L451.4999999999998,644.2000000000008L452.39999999999975,640.8000000000009L449.4999999999998,642.5000000000009L446.19999999999976,642.6000000000009L445.69999999999976,641.300000000001L446.09999999999974,635.200000000001L445.19999999999976,633.900000000001L442.59999999999974,632.300000000001L434.89999999999975,625.1000000000009L433.59999999999974,622.800000000001L434.7999999999997,622.200000000001L436.89999999999975,622.0000000000009L438.59999999999974,621.1000000000009L438.7999999999997,618.6000000000009L437.6999999999997,617.4000000000009L435.6999999999997,616.8000000000009L432.0999999999997,616.9000000000009L431.0999999999997,618.3000000000009L430.49999999999966,620.3000000000009L429.39999999999964,622.0000000000009L427.19999999999965,622.0000000000009L426.39999999999964,620.9000000000009L424.39999999999964,615.3000000000009L424.39999999999964,613.5000000000009L428.0999999999996,613.9000000000009L430.19999999999965,613.7000000000008L431.5999999999996,612.7000000000008L432.7999999999996,611.0000000000008L436.1999999999996,608.7000000000008L437.8999999999996,608.4000000000009L440.79999999999956,607.1000000000009L442.19999999999953,604.1000000000009L442.0999999999995,601.1000000000009L440.3999999999995,599.700000000001L440.8999999999995,597.200000000001L439.69999999999953,591.6000000000009L436.8999999999995,582.700000000001L435.0999999999995,579.6000000000009L433.2999999999995,577.5000000000009L431.0999999999995,576.3000000000009L428.19999999999953,575.9000000000009L425.69999999999953,577.7000000000008L424.0999999999995,578.2000000000008L423.3999999999995,576.8000000000009L423.5999999999995,573.4000000000009L424.4999999999995,571.6000000000009L425.7999999999995,570.9000000000009L427.6999999999995,570.8000000000009L431.4999999999995,569.4000000000009L432.89999999999947,565.8000000000009L432.4999999999995,561.1000000000008L430.5999999999995,556.3000000000009L424.3999999999995,548.3000000000009L417.49999999999955,544.2000000000008L401.99999999999955,540.0000000000008L401.99999999999955,538.1000000000008L424.3999999999995,540.0000000000008L421.99999999999955,535.8000000000008L413.19999999999953,531.9000000000008L409.79999999999956,529.7000000000007L407.49999999999955,525.4000000000008L406.29999999999956,523.9000000000008L403.99999999999955,522.7000000000007L396.59999999999957,522.2000000000007L394.29999999999956,520.8000000000008L394.29999999999956,519.3000000000008L416.59999999999957,522.7000000000007L421.1999999999996,521.9000000000008L430.09999999999957,518.4000000000008L434.99999999999955,517.6000000000008L434.99999999999955,519.3000000000009L431.8999999999995,519.1000000000008L430.49999999999955,519.7000000000008L429.19999999999953,520.8000000000009L431.3999999999995,525.2000000000008L435.0999999999995,528.7000000000008L439.19999999999953,529.9000000000009L442.79999999999956,527.9000000000009L436.8999999999996,522.7000000000008L438.79999999999956,520.8000000000009L440.19999999999953,522.2000000000008L442.49999999999955,522.8000000000009L447.59999999999957,522.7000000000008L449.8999999999996,521.8000000000009L454.6999999999996,518.3000000000009L459.59999999999957,517.2000000000008L461.79999999999956,516.0000000000008L463.3999999999996,513.6000000000008L465.09999999999957,502.90000000000083L464.59999999999957,500.90000000000083L462.09999999999957,497.3000000000008L461.1999999999996,495.2000000000008L464.7999999999996,497.60000000000076L468.2999999999996,498.2000000000008L471.5999999999996,496.8000000000008L474.5999999999996,493.3000000000008L479.4999999999996,494.40000000000083L483.3999999999996,487.6000000000008L484.09999999999957,477.6000000000008L479.49999999999955,469.20000000000084L475.3999999999995,467.50000000000085L466.2999999999995,466.80000000000086L454.9999999999995,462.50000000000085L451.7999999999995,459.70000000000084L450.4999999999995,455.30000000000086L468.5999999999995,464.00000000000085L472.2999999999995,463.1000000000009L494.0999999999995,466.6000000000009L496.69999999999953,469.00000000000085L502.5999999999995,468.70000000000084L512.4999999999995,465.6000000000008L517.6999999999996,462.40000000000083L520.5999999999996,461.90000000000083L522.1999999999996,464.1000000000008L521.5999999999996,466.6000000000008L517.5999999999996,471.40000000000083L516.3999999999995,474.40000000000083L518.0999999999996,477.1000000000008L517.1999999999996,478.70000000000084L514.8999999999996,479.1000000000008L512.4999999999997,477.90000000000083L513.3999999999996,474.40000000000083L508.89999999999964,474.70000000000084L507.0999999999996,475.70000000000084L505.69999999999965,477.90000000000083L512.6999999999996,490.20000000000084L515.3999999999996,497.1000000000008L513.3999999999996,502.1000000000008L511.2999999999996,502.5000000000008L506.89999999999964,501.3000000000008L504.69999999999965,502.1000000000008L502.19999999999965,505.90000000000083L500.49999999999966,507.20000000000084L497.89999999999964,507.30000000000086L497.89999999999964,509.1000000000009L500.19999999999965,509.9000000000009L507.19999999999965,509.1000000000009L509.0999999999996,508.30000000000086L511.2999999999996,506.50000000000085L513.7999999999996,505.20000000000084L516.3999999999996,505.50000000000085L517.3999999999996,507.50000000000085L518.7999999999996,511.70000000000084L519.8999999999996,515.7000000000008L519.7999999999996,517.6000000000008L508.39999999999964,519.6000000000008L505.89999999999964,520.7000000000008L504.89999999999964,522.3000000000009L506.69999999999965,524.3000000000009L508.69999999999965,524.6000000000008L515.0999999999997,524.1000000000008L516.3999999999996,523.5000000000008L517.4999999999997,522.2000000000008L519.7999999999996,524.6000000000008L523.2999999999996,529.7000000000008L524.2999999999996,533.0000000000008L522.1999999999996,540.0000000000008L524.6999999999996,537.6000000000008L526.5999999999996,535.3000000000009L532.4999999999995,522.2000000000008L532.7999999999995,521.9000000000009Z" class="sm_state_DNK3420" opacity="1" stroke-opacity="1" stroke-width="1.8900000000000003" stroke-linejoin="round" transform="matrix(0.3672,0,0,0.3672,0,0)" fill-opacity="1"/><desc>Created with Raphal 2.1.0</desc><defs/><text style="text-anchor: middle; font: bold 16px Arial; cursor: pointer; opacity: 1;" x="183.80164682539686" y="218.4250892857143" text-anchor="middle" font="10px &quot;Arial&quot;" stroke="none" fill="#384241" stroke-width="0" font-size="16px" font-weight="bold" font-family="Arial" opacity="1" transform="matrix(0.3672,0,0,0.3672,116.3165,138.2275)" class="sm_label_0"><tspan dy="4.99999468122212">Zealand</tspan></text><text style="text-anchor: middle; font: bold 16px Arial; cursor: pointer; opacity: 1;" x="217.43375000000003" y="169.44558531746034" text-anchor="middle" font="10px &quot;Arial&quot;" stroke="none" fill="#384241" stroke-width="0" font-size="16px" font-weight="bold" font-family="Arial" opacity="1" transform="matrix(0.3672,0,0,0.3672,137.6002,107.2315)" class="sm_label_1"><tspan dy="5.499998159257217">Capital Region</tspan></text><text style="text-anchor: middle; font: bold 16px Arial; cursor: pointer; opacity: 1;" x="105.04524801587303" y="42.627589285714286" text-anchor="middle" font="10px &quot;Arial&quot;" stroke="none" fill="#384241" stroke-width="0" font-size="16px" font-weight="bold" font-family="Arial" opacity="1" transform="matrix(0.3672,0,0,0.3672,66.4766,26.9763)" class="sm_label_2"><tspan dy="4.999999106270927">Northern DK</tspan></text><text style="text-anchor: middle; font: bold 16px Arial; cursor: pointer; opacity: 1;" x="49.45681547619048" y="207.30005952380955" text-anchor="middle" font="10px &quot;Arial&quot;" stroke="none" fill="#384241" stroke-width="0" font-size="16px" font-weight="bold" font-family="Arial" opacity="1" transform="matrix(0.3672,0,0,0.3672,31.2981,131.1872)" class="sm_label_3"><tspan dy="5.499995436895489">Southern DK</tspan></text><text style="text-anchor: middle; font: bold 16px Arial; cursor: pointer; opacity: 1;" x="79.56415674603174" y="145.61672619047621" text-anchor="middle" font="10px &quot;Arial&quot;" stroke="none" fill="#384241" stroke-width="0" font-size="16px" font-weight="bold" font-family="Arial" opacity="1" transform="matrix(0.3672,0,0,0.3672,50.3512,92.1517)" class="sm_label_4"><tspan dy="5.499996454148089">Central DK</tspan></text></svg>