<svg id="Group_145" data-name="Group 145" xmlns="http://www.w3.org/2000/svg" width="197.927" height="132.388" viewBox="0 0 197.927 132.388">
  <ellipse id="Ellipse_123" data-name="Ellipse 123" cx="81" cy="6.5" rx="81" ry="6.5" transform="translate(9.81 119.388)" fill="#3f3d56"/>
  <path id="Path_211" data-name="Path 211" d="M695.5,438.745h-.674c0-22.612,4.072-43.864,11.465-59.841,7.432-16.059,17.352-24.9,27.932-24.9v.673C712.874,354.673,695.5,392.388,695.5,438.745Z" transform="translate(-577.457 -316.847)" fill="#3f3d56"/>
  <path id="Path_212" data-name="Path 212" d="M899.656,241.571c0,5.269-2.312,12.01-5.163,12.01s-5.163-6.741-5.163-12.01,2.312-7.071,5.163-7.071S899.656,236.3,899.656,241.571Z" transform="translate(-728.294 -224.174)" fill="#e6e6e6"/>
  <path id="Path_213" data-name="Path 213" d="M981.859,330.269c-5.212.775-12.22-.519-12.639-3.34s5.908-6.1,11.12-6.874,7.335,1.246,7.754,4.066S987.071,329.494,981.859,330.269Z" transform="translate(-790.234 -290.393)" fill="#e6e6e6"/>
  <path id="Path_214" data-name="Path 214" d="M917.832,409.889c-1.864-4.929-2.086-12.051.581-13.06s7.214,4.479,9.078,9.407.339,7.432-2.328,8.441S919.7,414.818,917.832,409.889Z" transform="translate(-749.304 -349.968)" fill="#e6e6e6"/>
  <circle id="Ellipse_124" data-name="Ellipse 124" cx="6.5" cy="6.5" r="6.5" transform="translate(161.81 31.388)" fill="#0fc176"/>
  <path id="Path_215" data-name="Path 215" d="M394.727,449.745h-.673c0-46.357-17.372-84.071-38.724-84.071V365c10.581,0,20.5,8.844,27.933,24.9C390.655,405.88,394.727,427.132,394.727,449.745Z" transform="translate(-314.171 -325.378)" fill="#3f3d56"/>
  <path id="Path_216" data-name="Path 216" d="M290.329,252.571c0,5.269,2.312,12.01,5.163,12.01s5.163-6.741,5.163-12.01-2.312-7.071-5.163-7.071S290.329,247.3,290.329,252.571Z" transform="translate(-263.763 -232.704)" fill="#e6e6e6"/>
  <path id="Path_217" data-name="Path 217" d="M178.29,341.269c5.212.775,12.22-.519,12.639-3.34s-5.908-6.1-11.12-6.875-7.335,1.246-7.754,4.066S173.078,340.494,178.29,341.269Z" transform="translate(-171.987 -298.923)" fill="#e6e6e6"/>
  <path id="Path_218" data-name="Path 218" d="M266.739,420.889c1.864-4.929,2.086-12.051-.581-13.06s-7.214,4.479-9.078,9.407-.339,7.432,2.328,8.441S264.875,425.818,266.739,420.889Z" transform="translate(-237.339 -358.498)" fill="#e6e6e6"/>
  <circle id="Ellipse_125" data-name="Ellipse 125" cx="6.5" cy="6.5" r="6.5" transform="translate(22.81 33.388)" fill="#0fc176"/>
  <path id="Path_219" data-name="Path 219" d="M330.329,691.52V678.5s5.163,4.714,0,14.143" transform="translate(-294.783 -568.5)" fill="#3f3d56"/>
  <path id="Path_220" data-name="Path 220" d="M330,691.829l3.659-12.5s3.63,5.975-3.974,13.573" transform="translate(-294.282 -569.147)" fill="#3f3d56"/>
  <path id="Path_221" data-name="Path 221" d="M734.329,678.52V665.5s5.163,4.714,0,14.143" transform="translate(-608.089 -558.419)" fill="#3f3d56"/>
  <path id="Path_222" data-name="Path 222" d="M734,678.829l3.659-12.5s3.63,5.975-3.974,13.573" transform="translate(-607.589 -559.065)" fill="#3f3d56"/>
  <path id="Path_223" data-name="Path 223" d="M640.4,681.52V668.5s-5.163,4.714,0,14.143" transform="translate(-533.468 -560.745)" fill="#3f3d56"/>
  <path id="Path_224" data-name="Path 224" d="M631.938,681.829l-3.659-12.5s-3.63,5.975,3.974,13.573" transform="translate(-525.175 -561.391)" fill="#3f3d56"/>
  <path id="Path_225" data-name="Path 225" d="M394.869,73h0a9.639,9.639,0,0,1,9.639,9.639v9.44H385.23v-9.44A9.639,9.639,0,0,1,394.869,73Z" transform="translate(-304.51 -73)" fill="#2f2e41"/>
  <path id="Path_226" data-name="Path 226" d="M570.99,257.76c-3.535,2.511-8.245,3.48-13.315,3.975,3.494-2.835,2.125-5.965,0-9.142l7.751-.795C565.65,254.681,567.886,256.459,570.99,257.76Z" transform="translate(-471.092 -237.588)" fill="#ffb8b8"/>
  <path id="Path_227" data-name="Path 227" d="M545.119,305.619l-22.855-3.18c1.853-3.49,3.1-6.862,2.66-9.907a14.047,14.047,0,0,1,.057-4.587l.145-.776a12.289,12.289,0,0,1,1.7-4.2c.918-1.479.6-3.7.2-5.972l5.366-.795c2.961,1.5,6.285.5,9.738-1.391l6.36.6C548.066,286.744,547.119,297.138,545.119,305.619Z" transform="translate(-443.631 -255.438)" fill="#e6e6e6"/>
  <path id="Path_228" data-name="Path 228" d="M543.782,413.605l-4.372.795-28.221-49.088L500.059,414.4l-3.975-.2c-.087-27.819-1.338-58.362,5.39-70.225,2.524-5.99,6.386-11.725,4.945-17.617a29.451,29.451,0,0,0,17.091-.2,97.366,97.366,0,0,0,.994,19.675Z" transform="translate(-423.215 -295.258)" fill="#0fc176"/>
  <path id="Path_229" data-name="Path 229" d="M687.359,726.19h0a4.34,4.34,0,0,1-4.19-3.211l-.388-1.44a2.85,2.85,0,0,1-.081-1.047l.737-6.822c1.406-1.743,3.451-2.164,6.36-.795l1.8,8.028a4.34,4.34,0,0,1-4.235,5.288Z" transform="translate(-568.037 -594.528)" fill="#2f2e41"/>
  <path id="Path_230" data-name="Path 230" d="M491.711,726.19h0a4.34,4.34,0,0,1-4.19-3.211l-.388-1.44a2.85,2.85,0,0,1-.081-1.047l.737-6.822c1.406-1.743,3.451-2.164,6.36-.795l1.8,8.028a4.34,4.34,0,0,1-4.235,5.288Z" transform="translate(-416.31 -594.528)" fill="#2f2e41"/>
  <circle id="Ellipse_126" data-name="Ellipse 126" cx="6.558" cy="6.558" r="6.558" transform="translate(82.807 4.273)" fill="#ffb8b8"/>
  <circle id="Ellipse_127" data-name="Ellipse 127" cx="0.596" cy="0.596" r="0.596" transform="translate(83.701 31.798)" fill="#e6e6e6"/>
  <circle id="Ellipse_128" data-name="Ellipse 128" cx="0.596" cy="0.596" r="0.596" transform="translate(98.805 31.798)" fill="#e6e6e6"/>
  <path id="Path_231" data-name="Path 231" d="M407.073,93.235l-10.334-.183V86.279h12.52Z" transform="translate(-313.435 -83.298)" fill="#2f2e41"/>
  <path id="Path_232" data-name="Path 232" d="M591.9,228.663h-4.571c1.689-4.036,1.541-8.294,0-12.719H591.9Z" transform="translate(-494.092 -209.783)" fill="#2f2e41"/>
  <path id="Path_233" data-name="Path 233" d="M603.065,342.873l-2.708,3.175a3.371,3.371,0,0,1-5.462-.465h0a3.371,3.371,0,0,1,1.57-4.821l4.812-2.062,5.763-8.148-3.18-14.11,5.565-1.789,3.18,17.886Z" transform="translate(-499.59 -286.333)" fill="#ffb8b8"/>
  <path id="Path_234" data-name="Path 234" d="M507.015,349.5l2.708,3.175a3.371,3.371,0,0,0,5.462-.465h0a3.371,3.371,0,0,0-1.57-4.821l-4.812-2.062-5.763-8.148,3.18-14.11-5.565-1.789-3.18,17.886Z" transform="translate(-424.407 -291.469)" fill="#ffb8b8"/>
  <path id="Path_235" data-name="Path 235" d="M634.648,286.185a9.12,9.12,0,0,0-6.739,2.687l-1.987-11.924,2.4-.028a4.792,4.792,0,0,1,4.378,3.3Z" transform="translate(-524.018 -257.07)" fill="#e6e6e6"/>
  <path id="Path_236" data-name="Path 236" d="M508.1,292.808a9.12,9.12,0,0,1,6.739,2.687c2.3-3.489,2.633-7.561,1.987-11.924l-2.4-.028a4.792,4.792,0,0,0-4.378,3.3Z" transform="translate(-432.646 -262.207)" fill="#e6e6e6"/>
  <path id="Path_237" data-name="Path 237" d="M614.333,287.336h.219l1.32-12.254a.241.241,0,0,0-.24-.267h-1.058a.241.241,0,0,0-.241.241Z" transform="translate(-515.031 -255.438)" fill="#0fc176"/>
  <path id="Path_238" data-name="Path 238" d="M546.167,293.768h.221l1.32-11.216a.189.189,0,0,0-.188-.211h-1.164a.189.189,0,0,0-.189.189Z" transform="translate(-462.168 -261.274)" fill="#0fc176"/>
</svg>
